<svg id="visual" viewBox="0 0 1920 1080" width="1920" height="1080" xmlns="http://www.w3.org/2000/svg" xmlns:xlink="http://www.w3.org/1999/xlink" version="1.1"><g stroke-width="1" stroke-linejoin="bevel"><path d="M1030.7 574L1103.7 699L1281 562Z" fill="#1d4e6b" stroke="#1d4e6b"></path><path d="M1103.7 699L1293 738L1281 562Z" fill="#081a28" stroke="#081a28"></path><path d="M1281 562L1033.7 353L1030.7 574Z" fill="#00101c" stroke="#00101c"></path><path d="M1461.3 570L1318 329L1281 562Z" fill="#205a7a" stroke="#205a7a"></path><path d="M1281 562L1318 329L1033.7 353Z" fill="#081a28" stroke="#081a28"></path><path d="M1454.3 712L1461.3 570L1281 562Z" fill="#112e42" stroke="#112e42"></path><path d="M1033.7 353L841.3 556L1030.7 574Z" fill="#1d4e6b" stroke="#1d4e6b"></path><path d="M1030.7 574L830.3 736L1103.7 699Z" fill="#081a28" stroke="#081a28"></path><path d="M1293 738L1454.3 712L1281 562Z" fill="#15384f" stroke="#15384f"></path><path d="M1039.7 899L1273 893L1103.7 699Z" fill="#00101c" stroke="#00101c"></path><path d="M1103.7 699L1273 893L1293 738Z" fill="#112e42" stroke="#112e42"></path><path d="M1293 738L1496.3 886L1454.3 712Z" fill="#297ea6" stroke="#297ea6"></path><path d="M830.3 736L1039.7 899L1103.7 699Z" fill="#0c2435" stroke="#0c2435"></path><path d="M841.3 556L830.3 736L1030.7 574Z" fill="#0c2435" stroke="#0c2435"></path><path d="M1318 329L1099.7 208L1033.7 353Z" fill="#00101c" stroke="#00101c"></path><path d="M1033.7 353L870.3 322L841.3 556Z" fill="#1d4e6b" stroke="#1d4e6b"></path><path d="M891.3 160L870.3 322L1033.7 353Z" fill="#15384f" stroke="#15384f"></path><path d="M1461.3 570L1489.3 348L1318 329Z" fill="#112e42" stroke="#112e42"></path><path d="M1318 329L1307 163L1099.7 208Z" fill="#1d4e6b" stroke="#1d4e6b"></path><path d="M1671.7 347L1489.3 348L1461.3 570Z" fill="#277297" stroke="#277297"></path><path d="M830.3 736L840.3 875L1039.7 899Z" fill="#112e42" stroke="#112e42"></path><path d="M1520.3 212L1307 163L1318 329Z" fill="#00101c" stroke="#00101c"></path><path d="M1273 893L1496.3 886L1293 738Z" fill="#277297" stroke="#277297"></path><path d="M1454.3 712L1717.7 564L1461.3 570Z" fill="#081a28" stroke="#081a28"></path><path d="M869.3 1080L1089.7 1080L1039.7 899Z" fill="#0c2435" stroke="#0c2435"></path><path d="M1039.7 899L1089.7 1080L1273 893Z" fill="#081a28" stroke="#081a28"></path><path d="M1273 893L1319 1080L1496.3 886Z" fill="#297ea6" stroke="#297ea6"></path><path d="M1039.7 0L891.3 160L1099.7 208Z" fill="#081a28" stroke="#081a28"></path><path d="M1099.7 208L891.3 160L1033.7 353Z" fill="#297ea6" stroke="#297ea6"></path><path d="M621 360L639 574L841.3 556Z" fill="#297ea6" stroke="#297ea6"></path><path d="M841.3 556L639 574L830.3 736Z" fill="#081a28" stroke="#081a28"></path><path d="M830.3 736L642 747L840.3 875Z" fill="#297ea6" stroke="#297ea6"></path><path d="M621 360L841.3 556L870.3 322Z" fill="#205a7a" stroke="#205a7a"></path><path d="M1671.7 347L1520.3 212L1489.3 348Z" fill="#112e42" stroke="#112e42"></path><path d="M1489.3 348L1520.3 212L1318 329Z" fill="#19435d" stroke="#19435d"></path><path d="M1089.7 1080L1319 1080L1273 893Z" fill="#15384f" stroke="#15384f"></path><path d="M639 574L642 747L830.3 736Z" fill="#277297" stroke="#277297"></path><path d="M840.3 875L869.3 1080L1039.7 899Z" fill="#00101c" stroke="#00101c"></path><path d="M1742.7 694L1717.7 564L1454.3 712Z" fill="#277297" stroke="#277297"></path><path d="M1717.7 564L1671.7 347L1461.3 570Z" fill="#297ea6" stroke="#297ea6"></path><path d="M624 935L869.3 1080L840.3 875Z" fill="#112e42" stroke="#112e42"></path><path d="M642 143L621 360L870.3 322Z" fill="#081a28" stroke="#081a28"></path><path d="M459.7 887L624 935L642 747Z" fill="#1d4e6b" stroke="#1d4e6b"></path><path d="M1467.3 0L1257 0L1307 163Z" fill="#246688" stroke="#246688"></path><path d="M1307 163L1257 0L1099.7 208Z" fill="#15384f" stroke="#15384f"></path><path d="M1257 0L1039.7 0L1099.7 208Z" fill="#15384f" stroke="#15384f"></path><path d="M891.3 160L642 143L870.3 322Z" fill="#205a7a" stroke="#205a7a"></path><path d="M1496.3 886L1742.7 694L1454.3 712Z" fill="#00101c" stroke="#00101c"></path><path d="M1740.7 861L1742.7 694L1496.3 886Z" fill="#112e42" stroke="#112e42"></path><path d="M1319 1080L1505.3 1080L1496.3 886Z" fill="#081a28" stroke="#081a28"></path><path d="M437.7 756L642 747L639 574Z" fill="#112e42" stroke="#112e42"></path><path d="M642 747L624 935L840.3 875Z" fill="#112e42" stroke="#112e42"></path><path d="M1719.7 1080L1740.7 861L1496.3 886Z" fill="#00101c" stroke="#00101c"></path><path d="M1039.7 0L875.3 0L891.3 160Z" fill="#15384f" stroke="#15384f"></path><path d="M1683.7 151L1467.3 0L1520.3 212Z" fill="#205a7a" stroke="#205a7a"></path><path d="M1520.3 212L1467.3 0L1307 163Z" fill="#15384f" stroke="#15384f"></path><path d="M875.3 0L642 143L891.3 160Z" fill="#19435d" stroke="#19435d"></path><path d="M1920 320L1683.7 151L1671.7 347Z" fill="#297ea6" stroke="#297ea6"></path><path d="M1671.7 347L1683.7 151L1520.3 212Z" fill="#0c2435" stroke="#0c2435"></path><path d="M1920 540L1671.7 347L1717.7 564Z" fill="#1d4e6b" stroke="#1d4e6b"></path><path d="M391.7 507L437.7 756L639 574Z" fill="#00101c" stroke="#00101c"></path><path d="M391.7 507L639 574L621 360Z" fill="#0c2435" stroke="#0c2435"></path><path d="M624 935L604 1080L869.3 1080Z" fill="#297ea6" stroke="#297ea6"></path><path d="M459.7 887L604 1080L624 935Z" fill="#0c2435" stroke="#0c2435"></path><path d="M1505.3 1080L1719.7 1080L1496.3 886Z" fill="#246688" stroke="#246688"></path><path d="M437.7 756L459.7 887L642 747Z" fill="#297ea6" stroke="#297ea6"></path><path d="M1920 750L1920 540L1742.7 694Z" fill="#1d4e6b" stroke="#1d4e6b"></path><path d="M1742.7 694L1920 540L1717.7 564Z" fill="#112e42" stroke="#112e42"></path><path d="M1920 750L1742.7 694L1740.7 861Z" fill="#19435d" stroke="#19435d"></path><path d="M875.3 0L662 0L642 143Z" fill="#00101c" stroke="#00101c"></path><path d="M400.7 325L391.7 507L621 360Z" fill="#205a7a" stroke="#205a7a"></path><path d="M400.7 325L621 360L400.7 210Z" fill="#277297" stroke="#277297"></path><path d="M184.3 894L399.7 1080L459.7 887Z" fill="#081a28" stroke="#081a28"></path><path d="M1920 873L1920 750L1740.7 861Z" fill="#15384f" stroke="#15384f"></path><path d="M1920 0L1675.7 0L1683.7 151Z" fill="#1d4e6b" stroke="#1d4e6b"></path><path d="M1683.7 151L1675.7 0L1467.3 0Z" fill="#0c2435" stroke="#0c2435"></path><path d="M400.7 210L621 360L642 143Z" fill="#1d4e6b" stroke="#1d4e6b"></path><path d="M1920 540L1920 320L1671.7 347Z" fill="#112e42" stroke="#112e42"></path><path d="M1920 1080L1920 873L1740.7 861Z" fill="#1d4e6b" stroke="#1d4e6b"></path><path d="M402.7 0L400.7 210L642 143Z" fill="#297ea6" stroke="#297ea6"></path><path d="M188.3 548L218.3 728L391.7 507Z" fill="#0c2435" stroke="#0c2435"></path><path d="M1920 320L1920 156L1683.7 151Z" fill="#277297" stroke="#277297"></path><path d="M184.3 894L459.7 887L437.7 756Z" fill="#277297" stroke="#277297"></path><path d="M459.7 887L399.7 1080L604 1080Z" fill="#19435d" stroke="#19435d"></path><path d="M1719.7 1080L1920 1080L1740.7 861Z" fill="#081a28" stroke="#081a28"></path><path d="M391.7 507L218.3 728L437.7 756Z" fill="#081a28" stroke="#081a28"></path><path d="M236.3 347L391.7 507L400.7 325Z" fill="#0c2435" stroke="#0c2435"></path><path d="M400.7 210L236.3 347L400.7 325Z" fill="#205a7a" stroke="#205a7a"></path><path d="M662 0L402.7 0L642 143Z" fill="#081a28" stroke="#081a28"></path><path d="M400.7 210L182.3 192L236.3 347Z" fill="#1d4e6b" stroke="#1d4e6b"></path><path d="M1920 156L1920 0L1683.7 151Z" fill="#15384f" stroke="#15384f"></path><path d="M236.3 347L188.3 548L391.7 507Z" fill="#277297" stroke="#277297"></path><path d="M0 707L184.3 894L218.3 728Z" fill="#1d4e6b" stroke="#1d4e6b"></path><path d="M218.3 728L184.3 894L437.7 756Z" fill="#15384f" stroke="#15384f"></path><path d="M0 369L0 543L188.3 548Z" fill="#19435d" stroke="#19435d"></path><path d="M188.3 548L0 707L218.3 728Z" fill="#19435d" stroke="#19435d"></path><path d="M402.7 0L182.3 192L400.7 210Z" fill="#15384f" stroke="#15384f"></path><path d="M184.3 894L207.3 1080L399.7 1080Z" fill="#0c2435" stroke="#0c2435"></path><path d="M402.7 0L180.3 0L182.3 192Z" fill="#205a7a" stroke="#205a7a"></path><path d="M0 369L188.3 548L236.3 347Z" fill="#297ea6" stroke="#297ea6"></path><path d="M0 369L236.3 347L182.3 192Z" fill="#00101c" stroke="#00101c"></path><path d="M184.3 894L0 1080L207.3 1080Z" fill="#1d4e6b" stroke="#1d4e6b"></path><path d="M0 543L0 707L188.3 548Z" fill="#19435d" stroke="#19435d"></path><path d="M0 202L0 369L182.3 192Z" fill="#19435d" stroke="#19435d"></path><path d="M0 707L0 893L184.3 894Z" fill="#112e42" stroke="#112e42"></path><path d="M0 0L0 202L182.3 192Z" fill="#081a28" stroke="#081a28"></path><path d="M0 893L0 1080L184.3 894Z" fill="#246688" stroke="#246688"></path><path d="M180.3 0L0 0L182.3 192Z" fill="#0c2435" stroke="#0c2435"></path></g></svg>