<svg id="visual" viewBox="0 0 1920 1080" width="1920" height="1080" xmlns="http://www.w3.org/2000/svg" xmlns:xlink="http://www.w3.org/1999/xlink" version="1.1"><rect x="0" y="0" width="1920" height="1080" fill="#001220"></rect><defs><linearGradient id="grad1_0" x1="43.8%" y1="0%" x2="100%" y2="100%"><stop offset="14.444444444444446%" stop-color="#001220" stop-opacity="1"></stop><stop offset="85.55555555555554%" stop-color="#001220" stop-opacity="1"></stop></linearGradient></defs><defs><linearGradient id="grad2_0" x1="0%" y1="0%" x2="56.3%" y2="100%"><stop offset="14.444444444444446%" stop-color="#001220" stop-opacity="1"></stop><stop offset="85.55555555555554%" stop-color="#001220" stop-opacity="1"></stop></linearGradient></defs><g transform="translate(1920, 0)"><path d="M0 972C-116 932.6 -232 893.2 -353.2 852.7C-474.4 812.3 -600.8 770.8 -687.3 687.3C-773.8 603.8 -820.3 478.2 -861.1 356.7C-901.8 235.1 -936.9 117.6 -972 0L0 0Z" fill="#FBAE3C"></path></g><g transform="translate(0, 1080)"><path d="M0 -972C104.9 -914.5 209.8 -856.9 340.6 -822.3C471.3 -787.6 627.9 -775.7 687.3 -687.3C746.7 -598.9 708.8 -433.8 740 -306.5C771.3 -179.2 871.6 -89.6 972 0L0 0Z" fill="#FBAE3C"></path></g></svg>